<?xml version="1.0" encoding="UTF-8" standalone="no"?>
<!-- Created with Inkscape (http://www.inkscape.org/) -->

<svg
   width="52.955078"
   height="37.089844"
   viewBox="0 0 52.95508 37.089843"
   version="1.1"
   id="svg1"
   xmlns="http://www.w3.org/2000/svg"
   xmlns:svg="http://www.w3.org/2000/svg">
  <defs
     id="defs1" />
  <g
     id="layer1"
     transform="translate(-24.658203,-15.333984)">
    <g
       id="g1"
       transform="translate(13.261499,-5.8019019)">
      <path
         id="rect1"
         style="fill:#333333;stroke-width:2.76191;paint-order:stroke fill markers"
         d="m 18.648657,21.135886 c -4.017813,0 -7.251953,3.234141 -7.251953,7.251953 v 22.585938 c 0,4.017813 3.23414,7.251953 7.251953,7.251953 h 38.451172 c 4.017813,0 7.251953,-3.23414 7.251953,-7.251953 V 28.387839 c 0,-4.017812 -3.23414,-7.251953 -7.251953,-7.251953 z m 2.052735,8.8125 h 3.785156 l 4.988281,19.466797 h -2.933594 l -1.173828,-4.933594 h -5.519531 l -1.173828,4.933594 h -2.933594 z m 12.132812,0 h 6.373047 c 1.262223,0 2.354852,0.23875 3.279297,0.71875 0.942222,0.48 1.662378,1.165799 2.160156,2.054688 0.515556,0.871111 0.773438,1.900685 0.773438,3.091797 0,1.191111 -0.257882,2.232204 -0.773438,3.121093 -0.515556,0.871112 -1.235711,1.545391 -2.160156,2.025391 -0.924445,0.48 -2.017074,0.720703 -3.279297,0.720703 H 35.71311 v 7.734375 h -2.878906 z m 16.373047,0 h 10.800781 v 2.613282 h -3.947265 v 14.238281 h 3.947265 v 2.615234 H 49.207251 v -2.615234 h 3.919922 V 32.561668 H 49.207251 Z M 22.59397,32.374168 c -0.05333,0.284444 -0.150747,0.790642 -0.292969,1.519531 -0.142222,0.728889 -0.339002,1.582769 -0.587891,2.560547 l -1.332031,5.626953 h 4.425781 l -1.332031,-5.59961 c -0.231111,-0.995555 -0.42789,-1.859001 -0.587891,-2.58789 -0.142222,-0.728889 -0.239635,-1.235087 -0.292968,-1.519531 z m 13.11914,0.132812 v 6.613281 h 3.494141 c 0.995556,0 1.78638,-0.301805 2.373047,-0.90625 0.604444,-0.604444 0.90625,-1.404835 0.90625,-2.40039 0,-0.995556 -0.301806,-1.795946 -0.90625,-2.400391 -0.586667,-0.604445 -1.377491,-0.90625 -2.373047,-0.90625 z" />
    </g>
  </g>
</svg>
